HIERARCHY
ROOT Hips
{
  OFFSET 0 0.240689 0
  CHANNELS 6 Xposition Yposition Zposition Zrotation Xrotation Yrotation
  JOINT Bip01_Spine0
  {
    OFFSET 0 -24.7459 49.7988
    CHANNELS 6 Xposition Yposition Zposition Zrotation Xrotation Yrotation
    JOINT Bip01_Pelvis
    {
      OFFSET 0 0 0
      CHANNELS 6 Xposition Yposition Zposition Zrotation Xrotation Yrotation
      JOINT Bip01_Spine0_Tail
      {
        OFFSET -6.47486 -3.86022 0
        CHANNELS 6 Xposition Yposition Zposition Zrotation Xrotation Yrotation
        JOINT Bip01_Spine0_Tail1
        {
          OFFSET 10.3837 -0.00825882 0
          CHANNELS 6 Xposition Yposition Zposition Zrotation Xrotation Yrotation
          JOINT Bip01_Spine0_Tail2
          {
            OFFSET 10.3837 -0.00826263 0
            CHANNELS 6 Xposition Yposition Zposition Zrotation Xrotation Yrotation
            JOINT Bip01_Spine0_Tail3
            {
              OFFSET 10.3837 -0.00825882 0
              CHANNELS 6 Xposition Yposition Zposition Zrotation Xrotation Yrotation
              JOINT Bip01_Spine0_Tail4
              {
                OFFSET 10.3837 -0.00826263 0
                CHANNELS 6 Xposition Yposition Zposition Zrotation Xrotation Yrotation
                End Site
                {
                  OFFSET 0 0 0
                }
              }
            }
          }
        }
      }
      JOINT Bip01_R_Thigh
      {
        OFFSET 0 -1.52588e-005 -8.75617
        CHANNELS 6 Xposition Yposition Zposition Zrotation Xrotation Yrotation
        JOINT Bip01_R_Calf
        {
          OFFSET 19.7638 0 0
          CHANNELS 6 Xposition Yposition Zposition Zrotation Xrotation Yrotation
          JOINT Bip01_R_Foot
          {
            OFFSET 18.6534 0 0
            CHANNELS 6 Xposition Yposition Zposition Zrotation Xrotation Yrotation
            JOINT Bip01_R_Toe0
            {
              OFFSET 5.09145 13.9567 0
              CHANNELS 6 Xposition Yposition Zposition Zrotation Xrotation Yrotation
              JOINT Bip01_R_Toe01
              {
                OFFSET 4.28803 0 0
                CHANNELS 6 Xposition Yposition Zposition Zrotation Xrotation Yrotation
                JOINT Bip01_R_Toe02
                {
                  OFFSET 3.85801 0 0
                  CHANNELS 6 Xposition Yposition Zposition Zrotation Xrotation Yrotation
                  End Site
                  {
                    OFFSET 0 0 0
                  }
                }
              }
            }
          }
        }
      }
      JOINT Bip01_L_Thigh
      {
        OFFSET 0 1.52588e-005 8.75617
        CHANNELS 6 Xposition Yposition Zposition Zrotation Xrotation Yrotation
        JOINT Bip01_L_Calf
        {
          OFFSET 19.7638 0 0
          CHANNELS 6 Xposition Yposition Zposition Zrotation Xrotation Yrotation
          JOINT Bip01_L_Foot
          {
            OFFSET 18.6534 0 0
            CHANNELS 6 Xposition Yposition Zposition Zrotation Xrotation Yrotation
            JOINT Bip01_L_Toe0
            {
              OFFSET 5.09144 13.9567 0
              CHANNELS 6 Xposition Yposition Zposition Zrotation Xrotation Yrotation
              JOINT Bip01_L_Toe01
              {
                OFFSET 4.28802 0 0
                CHANNELS 6 Xposition Yposition Zposition Zrotation Xrotation Yrotation
                JOINT Bip01_L_Toe02
                {
                  OFFSET 3.85801 0 0
                  CHANNELS 6 Xposition Yposition Zposition Zrotation Xrotation Yrotation
                  End Site
                  {
                    OFFSET 0 0 0
                  }
                }
              }
            }
          }
        }
      }
      JOINT Bip01_Spine
      {
        OFFSET 9.14835 -0.00640869 -1.1e-005
        CHANNELS 6 Xposition Yposition Zposition Zrotation Xrotation Yrotation
        JOINT Bip01_Spine1
        {
          OFFSET 8.04366 -0.00638199 0
          CHANNELS 6 Xposition Yposition Zposition Zrotation Xrotation Yrotation
          JOINT Bip01_Spine2
          {
            OFFSET 8.04367 -0.00639343 0
            CHANNELS 6 Xposition Yposition Zposition Zrotation Xrotation Yrotation
            JOINT Bip01_Spine3
            {
              OFFSET 8.04304 -0.00831222 0
              CHANNELS 6 Xposition Yposition Zposition Zrotation Xrotation Yrotation
              JOINT Bip01_Neck
              {
                OFFSET 10.6685 1.06813 0
                CHANNELS 6 Xposition Yposition Zposition Zrotation Xrotation Yrotation
                JOINT Bip01_R_Clavicle
                {
                  OFFSET -3.21661 -4.89635 -9.04802
                  CHANNELS 6 Xposition Yposition Zposition Zrotation Xrotation Yrotation
                  JOINT Bip01_R_UpperArm
                  {
                    OFFSET 19.0492 0 0
                    CHANNELS 6 Xposition Yposition Zposition Zrotation Xrotation Yrotation
                    JOINT Bip01_R_Forearm
                    {
                      OFFSET 10.3706 0 0
                      CHANNELS 6 Xposition Yposition Zposition Zrotation Xrotation Yrotation
                      JOINT Bip01_R_Hand
                      {
                        OFFSET 22.8632 0 0
                        CHANNELS 6 Xposition Yposition Zposition Zrotation Xrotation Yrotation
                        JOINT Bip01_R_Finger0
                        {
                          OFFSET 6.48259 0.103651 0.504496
                          CHANNELS 6 Xposition Yposition Zposition Zrotation Xrotation Yrotation
                          JOINT Bip01_R_Finger01
                          {
                            OFFSET 3.66847 0 0
                            CHANNELS 6 Xposition Yposition Zposition Zrotation Xrotation Yrotation
                            End Site
                            {
                              OFFSET 0 0 0
                            }
                          }
                        }
                      }
                    }
                  }
                }
                JOINT Bip01_L_Clavicle
                {
                  OFFSET -3.21661 -4.89641 9.04797
                  CHANNELS 6 Xposition Yposition Zposition Zrotation Xrotation Yrotation
                  JOINT Bip01_L_UpperArm
                  {
                    OFFSET 19.0492 0 0
                    CHANNELS 6 Xposition Yposition Zposition Zrotation Xrotation Yrotation
                    JOINT Bip01_L_Forearm
                    {
                      OFFSET 10.3706 0 0
                      CHANNELS 6 Xposition Yposition Zposition Zrotation Xrotation Yrotation
                      JOINT Bip01_L_Hand
                      {
                        OFFSET 22.8631 0 0
                        CHANNELS 6 Xposition Yposition Zposition Zrotation Xrotation Yrotation
                        JOINT Bip01_L_Finger0
                        {
                          OFFSET 6.48257 0.103655 -0.504492
                          CHANNELS 6 Xposition Yposition Zposition Zrotation Xrotation Yrotation
                          JOINT Bip01_L_Finger01
                          {
                            OFFSET 3.66844 0 0
                            CHANNELS 6 Xposition Yposition Zposition Zrotation Xrotation Yrotation
                            End Site
                            {
                              OFFSET 0 0 0
                            }
                          }
                        }
                      }
                    }
                  }
                }
                JOINT Bip01_Neck1
                {
                  OFFSET 7.52459 -0.00656509 0
                  CHANNELS 6 Xposition Yposition Zposition Zrotation Xrotation Yrotation
                  JOINT Bip01_Neck2
                  {
                    OFFSET 8.4783 -0.00588226 0
                    CHANNELS 6 Xposition Yposition Zposition Zrotation Xrotation Yrotation
                    JOINT Bip01_Head
                    {
                      OFFSET 8.41606 0 0
                      CHANNELS 6 Xposition Yposition Zposition Zrotation Xrotation Yrotation
                      JOINT EyesBlue
                      {
                        OFFSET 0 0 0
                        CHANNELS 6 Xposition Yposition Zposition Zrotation Xrotation Yrotation
                        JOINT EyesBlue_2
                        {
                          OFFSET 0 -0.500007 0
                          CHANNELS 6 Xposition Yposition Zposition Zrotation Xrotation Yrotation
                          End Site
                          {
                            OFFSET 0 0 0
                          }
                        }
                      }
                      JOINT Bip01_Head2_Eyeleds
                      {
                        OFFSET 6.52751 7.61746 2.2e-005
                        CHANNELS 6 Xposition Yposition Zposition Zrotation Xrotation Yrotation
                        End Site
                        {
                          OFFSET 0 0 0
                        }
                      }
                      JOINT Bip01_Head_Muzzle
                      {
                        OFFSET 2.88628 13.9448 3.88994
                        CHANNELS 6 Xposition Yposition Zposition Zrotation Xrotation Yrotation
                        End Site
                        {
                          OFFSET 0 0 0
                        }
                      }
                      JOINT Bip01_Head1_Jaw
                      {
                        OFFSET 0.271065 1.32405 0
                        CHANNELS 6 Xposition Yposition Zposition Zrotation Xrotation Yrotation
                        JOINT _Bip01_Head11_TungeControler
                        {
                          OFFSET 4.61616 5.82872 0
                          CHANNELS 6 Xposition Yposition Zposition Zrotation Xrotation Yrotation
                          JOINT _Bip01_Ponytail3_tunge
                          {
                            OFFSET 5.17785 2.98805 0
                            CHANNELS 6 Xposition Yposition Zposition Zrotation Xrotation Yrotation
                            JOINT Bip01_Ponytail31
                            {
                              OFFSET 5.57569 0 0
                              CHANNELS 6 Xposition Yposition Zposition Zrotation Xrotation Yrotation
                              JOINT Bip01_Ponytail32
                              {
                                OFFSET 2.93165 0 0
                                CHANNELS 6 Xposition Yposition Zposition Zrotation Xrotation Yrotation
                                JOINT Bip01_Ponytail3Nub
                                {
                                  OFFSET 3.30155 0 0
                                  CHANNELS 6 Xposition Yposition Zposition Zrotation Xrotation Yrotation
                                  End Site
                                  {
                                    OFFSET 0 0 0
                                  }
                                }
                              }
                            }
                          }
                        }
                        JOINT Bip01_Head_JawNub
                        {
                          OFFSET 15.5776 -0.000389099 0
                          CHANNELS 6 Xposition Yposition Zposition Zrotation Xrotation Yrotation
                          End Site
                          {
                            OFFSET 0 0 0
                          }
                        }
                      }
                      JOINT Bip01_Ponytail2
                      {
                        OFFSET 9.40334 1.03973 -6.51764
                        CHANNELS 6 Xposition Yposition Zposition Zrotation Xrotation Yrotation
                        JOINT Bip01_Ponytail21
                        {
                          OFFSET 2.77018 -0.00640106 1.33514e-005
                          CHANNELS 6 Xposition Yposition Zposition Zrotation Xrotation Yrotation
                          End Site
                          {
                            OFFSET 0 0 0
                          }
                        }
                      }
                      JOINT Bip01_Ponytail1
                      {
                        OFFSET 9.40368 1.03969 6.51768
                        CHANNELS 6 Xposition Yposition Zposition Zrotation Xrotation Yrotation
                        JOINT Bip01_Ponytail11
                        {
                          OFFSET 2.77018 -0.00640487 0
                          CHANNELS 6 Xposition Yposition Zposition Zrotation Xrotation Yrotation
                          End Site
                          {
                            OFFSET 0 0 0
                          }
                        }
                      }
                    }
                  }
                }
              }
            }
          }
        }
      }
    }
  }
}
MOTION
Frames:	4
Frame Time:	0.0333333
0 1e-006 -1e-006 -0 -90 -0 12.3937 -28.7008 30.532 74.2234 10.5952 56.9338 0 0 0 -90 -3.50835e-015 -90 -6.477 -3.85879 -0.000106 156.46 -2.70064e-005 3.6909e-005 10.377 -0.005374 2.1e-005 -49.163 0.000531 0.001428 10.3784 -0.006643 -7.10543e-015 -36.5 -3.1e-005 9.4e-005 10.3795 -0.007298 0.000152 -27.9984 0.000573 0.000954 10.3791 -0.007079 5.6e-005 -30.4983 0.000424 0.000742 1e-005 -1.1e-005 -8.75617 -75.9053 -23.5508 175.424 19.7638 1.77636e-015 -1e-006 -117.125 9.05408e-005 -0.000401076 18.6534 -8.88179e-015 -7.10543e-015 63.1622 -22.2321 -30.2236 5.09143 13.9567 2.30351e-006 96.0673 1.62716 -4.72943 4.288 -3.55271e-015 0 32.5011 3.83664e-005 -1.58429e-005 3.85799 3.55271e-015 5.32907e-015 -45 -5.6036e-005 -2.52321e-005 -1.1e-005 7e-006 8.75617 -129.71 2.61898 -165.097 19.7638 -1.42109e-014 -2.66454e-015 -129.656 0.00014347 -0.000400361 18.6534 0 -1e-006 75.2992 -19.9393 8.49876 5.09143 13.9567 -1e-006 98.5379 -0.86684 4.92416 4.288 -1e-006 1e-006 -17.5002 0.000706633 0.000970515 3.85799 1.24345e-013 -2e-006 -45 -1.42967e-005 -9.5279e-006 9.14889 -0.006267 -0.000397 4.79605 4.1637 -6.83559 8.04403 -0.006355 0.000671 3.2764 -6.01227 -24.0267 8.04471 -0.006259 0.000854 9.45512 -7.67075 -16.5369 8.04419 -0.008224 0.000499 3.60711 -2.80294 -9.96008 10.6677 1.06841 9.44633e-007 -22.1638 -0.00754095 -9.49994 -3.88134 -5.33315 -8.52498 118.726 -81.154 31.2555 19.0492 7e-006 -1e-006 53.4729 59.5138 -62.1702 10.3706 -3.55271e-015 -7.10543e-015 -85.0065 -2.98639e-005 -0.000534589 22.8631 -8.88178e-014 3e-006 80.8142 22.5174 -8.43258 6.48256 0.103653 0.504499 -31.8681 -11.5581 -10.3953 3.66843 2.16716e-013 1e-006 34.6071 -2.09899e-006 1.13031e-005 -0.894461 -5.33545 9.32273 -110.9 78.0026 -162.336 19.0492 -1e-006 6.03961e-014 113.348 1.05254 72.6083 10.3706 -1e-006 4.44089e-014 -103.11 6.9985e-005 -0.000620296 22.8631 -8e-006 -3e-006 2.63067 24.5707 -0.521146 6.48257 0.103653 -0.504494 -69.561 -23.1713 3.62597 3.66843 1e-006 -1e-006 40.107 -1.86088e-005 1.34939e-005 7.52525 -0.006637 3.59999e-005 -7.49906 -0.00664778 -9.99878 8.475 -0.006574 2.8e-005 -0.000711453 -0.011481 -14.9992 8.41604 -1e-006 -3e-006 -45.4143 57.6213 -44.2745 -6e-006 3e-006 -7.00001e-006 -23.1098 1.37701e-015 90 -1.88312e-006 -0.499999 1.86804e-006 180 90 -90 0 0 0 -113.549 -5.79056e-014 -180 2.8863 13.9448 3.88993 -22.989 1.37021e-015 90 0 0 0 -52.836 -1.52588e-005 -180 0 0 0 -120.289 -5.33318e-007 -4.42321e-006 0 0 0 133.74 2.90353e-006 -2.25191e-006 0 0 0 1.83152 -3.73395e-008 1.61673e-007 0 0 0 -17.65 3.03683e-007 -1.52164e-006 0 0 0 -26.1943 -1.2055e-006 -2.24506e-006 15.5776 -0.000398 -6.99997e-006 3.18055e-015 6.36111e-015 -9.54166e-015 9.40547 1.0401 -6.5167 41.3391 -7.89083 90.0334 2.77379 -0.004741 0.001875 39.3178 -16.8126 19.6633 9.40581 1.04003 6.51672 41.3379 7.89093 -90.0345 2.77379 -0.004703 -0.001816 39.3179 16.814 -19.6626 
0.435189 1e-006 -9.59984e-007 -0 -90 -0 11.2643 -28.7008 31.8757 75.3591 9.24165 60.1696 0 0 0 -90 -0.0385344 -89.2464 -6.47602 -3.85879 -0.0852717 154.311 -0.326265 0.6782 10.377 -0.005374 2.1e-005 -46.5211 0.000596257 0.00140201 10.3784 -0.006643 -3.55271e-015 -35.4383 -2.92529e-005 9.45583e-005 10.3795 -0.007298 0.000152 -30.768 0.000526233 0.000980573 10.3791 -0.007079 5.6e-005 -25.9379 0.000481654 0.000705939 1e-005 -1.1e-005 -8.75617 -85.0193 -23.4006 174.874 19.7638 1.77636e-015 -1e-006 -117.379 9.12852e-005 -0.000401114 18.6534 0 -3.55271e-015 56.3043 -20.4119 -31.1388 5.09143 13.9567 2.34274e-006 96.7465 1.57773 -4.72578 4.288 3.55271e-015 -3.55271e-015 32.0305 4.31507e-005 -1.57777e-005 3.85799 -5.32907e-015 0 -45 -5.92158e-005 -2.8664e-005 -1.1e-005 7e-006 8.75617 -129.278 2.81107 -164.941 19.7638 3.55271e-015 3.9968e-015 -125.87 0.000127524 -0.000401151 18.6534 -7.10543e-015 -1e-006 68.1615 -18.2579 7.00866 5.09143 13.9567 -1e-006 98.5017 -0.963451 4.79854 4.288 -1e-006 1e-006 -15.9459 0.000731921 0.000950687 3.85799 1.26121e-013 -2e-006 -45 -1.31437e-005 -9.47561e-006 9.14781 -0.006267 0.119984 4.19102 3.77648 -6.9629 8.04403 -0.006355 0.000671 3.28091 -5.48603 -21.97 8.04471 -0.006259 0.000854 9.19505 -7.13197 -15.1302 8.04419 -0.008224 0.000499 2.73359 -2.48507 -9.09889 10.6677 1.06841 9.50346e-007 -22.1789 -0.00737326 -9.81421 -3.93063 -5.33383 -8.50187 123.904 -80.7135 37.6469 19.0492 7e-006 -1e-006 64.3114 37.1267 -75.0002 10.3706 3.55271e-015 2.13163e-014 -102.128 5.66006e-005 -0.000534436 22.8631 -5.32907e-014 3e-006 68.9196 25.3594 2.96111 6.48256 0.103653 0.504499 -31.5929 -11.6078 -10.3393 3.66843 2.06057e-013 1e-006 35.1093 -3.62508e-006 1.22891e-005 -0.837536 -5.3361 9.32754 -111.962 77.3552 -161.943 19.0492 -1e-006 5.32907e-014 109.629 4.59957 75.0447 10.3706 -1e-006 6.9722e-014 -102.349 6.2601e-005 -0.0006228 22.8631 -8e-006 -3e-006 0.00729219 20.8539 -1.61516 6.48257 0.103653 -0.504494 -67.5229 -20.597 5.00161 3.66843 1e-006 -1e-006 40.107 -1.26078e-005 8.14669e-006 7.52525 -0.006637 3.59998e-005 -7.72544 -0.0168761 -12.0066 8.475 -0.006574 2.8e-005 -0.102353 0.0177097 -16.0473 8.41604 -1e-006 -3e-006 -42.3496 53.7971 -40.7132 -6e-006 3e-006 -7.00001e-006 -23.1098 1.37701e-015 90 -1.8801e-006 -0.499999 1.86508e-006 180 90 -90 0 0 0 -112.969 -5.79056e-014 -180 3.03153 13.9333 3.88993 -22.989 1.37021e-015 90 0 0 0 -55.5443 -1.52588e-005 -180 0 0 0 -120.289 5.26929e-007 -4.4703e-006 0 0 0 133.74 3.68119e-006 -1.50577e-006 0 0 0 1.83152 -5.3419e-008 1.63707e-007 0 0 0 -17.65 2.85955e-007 -1.53605e-006 0 0 0 -26.1943 -2.05222e-006 -2.25722e-006 15.5776 -0.000398 -6.99997e-006 3.08973e-031 -3.18055e-015 5.56597e-015 9.40547 1.0401 -6.5167 40.5638 -12.1851 88.7879 2.77379 -0.004741 0.001875 34.0897 -15.2661 18.3718 9.40581 1.04003 6.51672 40.5637 12.1861 -88.7878 2.77379 -0.004703 -0.001816 34.0899 15.2682 -18.3713 
0.870364 1e-006 -9.19969e-007 -0 -90 -0 10.0693 -28.7008 33.3011 76.6416 7.88423 63.5738 0 0 0 -90 -0.00388505 -88.4119 -6.47375 -3.85879 -0.179599 152.051 -0.744053 1.40202 10.377 -0.005374 2.1e-005 -43.6993 0.000664555 0.00137095 10.3784 -0.006643 0 -34.2465 -2.72799e-005 9.51463e-005 10.3795 -0.007298 0.000152 -33.8707 0.000472387 0.00100762 10.3791 -0.007079 5.6e-005 -20.8247 0.000542653 0.000660203 1e-005 -1.1e-005 -8.75617 -94.0005 -22.8291 174.413 19.7638 -7.10543e-015 -1e-006 -116.636 8.89808e-005 -0.000400881 18.6534 3.55271e-015 0 48.9373 -18.3262 -31.3546 5.09143 13.9567 2.37229e-006 98.3495 1.46003 -4.71634 4.288 -3.55271e-015 3.55271e-015 30.9212 4.71299e-005 -1.59177e-005 3.85799 7.54952e-015 -3.55271e-015 -45 -6.15433e-005 -3.12613e-005 -1.1e-005 7e-006 8.75617 -128.739 3.05021 -164.787 19.7638 3.55271e-015 -4.44089e-015 -121.921 0.000111444 -0.000401599 18.6534 0 -1e-006 60.7133 -16.3715 5.51285 5.09143 13.9567 -1e-006 98.4113 -1.21215 4.47812 4.288 -1e-006 1e-006 -11.9736 0.000796577 0.000897193 3.85799 6.57252e-014 -2e-006 -45 -1.37231e-005 -1.06669e-005 9.14497 -0.006267 0.253315 3.57555 3.3853 -7.15976 8.04403 -0.006355 0.000671 3.26243 -4.95674 -19.906 8.04471 -0.006259 0.000854 8.91543 -6.61058 -13.7163 8.04419 -0.008224 0.000499 1.83764 -2.17337 -8.21172 10.6677 1.06841 9.57926e-007 -22.1941 -0.00729803 -10.2804 -4.00036 -5.33453 -8.46887 128.417 -80.0796 43.4317 19.0492 7e-006 -1e-006 68.6384 14.1385 -83.5221 10.3706 -7.10543e-015 -7.10543e-015 -115.861 0.000127939 -0.000533734 22.8631 0 3e-006 52.0153 25.269 13.7717 6.48256 0.103653 0.504499 -31.3023 -11.6597 -10.2805 3.66843 1.98952e-013 1e-006 35.6398 -4.59236e-006 1.31174e-005 -0.757717 -5.33674 9.3339 -112.705 76.5737 -161.881 19.0492 -1e-006 4.9738e-014 105.891 7.7599 77.8911 10.3706 -1e-006 1.19016e-013 -101.857 5.81968e-005 -0.000625208 22.8631 -8e-006 -3e-006 -2.68221 17.2368 -2.63699 6.48257 0.103653 -0.504494 -65.5757 -17.9257 6.28237 3.66843 1e-006 -1e-006 40.107 -7.11589e-006 3.29436e-006 7.52525 -0.006637 3.59998e-005 -7.95876 -0.0206332 -14.3585 8.475 -0.006574 2.8e-005 -0.204238 0.0520956 -17.3755 8.41604 -1e-006 -3e-006 -37.8863 50.3881 -37.9514 -6e-006 3e-006 -7.00001e-006 -23.1098 1.37701e-015 90 -1.88056e-006 -0.499999 1.86013e-006 180 90 -90 0 0 0 -112.389 -7.01671e-015 -180 3.17675 13.9219 3.88993 -22.989 1.37021e-015 90 0 0 0 -58.2526 -1.52588e-005 -180 0 0 0 -120.289 1.69682e-006 -4.16367e-006 0 0 0 133.74 4.25092e-006 -5.31138e-007 0 0 0 1.83152 -7.15994e-008 1.52107e-007 0 0 0 -17.65 2.71245e-007 -1.42055e-006 0 0 0 -26.1943 -2.74406e-006 -2.09049e-006 15.5776 -0.000398 -6.99997e-006 1.59028e-015 2.22639e-014 -7.95139e-016 9.40547 1.0401 -6.5167 39.5293 -16.7219 87.2215 2.77379 -0.004741 0.001875 28.7181 -13.6331 17.1579 9.40581 1.04003 6.51672 39.5295 16.7219 -87.2218 2.77379 -0.004703 -0.001816 28.7182 13.6348 -17.1569 
1.30556 1e-006 -8.79952e-007 -0 -90 -0 8.82929 -28.7008 34.7823 78.0539 6.55987 67.1068 0 0 0 -90 0.0120683 -87.5217 -6.46982 -3.85879 -0.280161 149.816 -1.24608 2.1412 10.377 -0.005374 2.1e-005 -40.9039 0.000730625 0.00133691 10.3784 -0.006643 1.77636e-015 -33.043 -2.52755e-005 9.56982e-005 10.3795 -0.007298 0.000152 -36.9137 0.000418232 0.00103127 10.3791 -0.007079 5.6e-005 -15.8105 0.00059828 0.000610247 1e-005 -1.1e-005 -8.75617 -102.563 -21.9546 174.204 19.7638 -1.77636e-015 -1e-006 -114.955 8.32837e-005 -0.000400734 18.6534 3.55271e-015 -7.10543e-015 41.21 -16.1297 -30.9658 5.09143 13.9567 2.39413e-006 100.454 1.30576 -4.69923 4.288 -7.10543e-015 -3.55271e-015 29.4616 5.02654e-005 -1.61562e-005 3.85799 1.77636e-015 1.77636e-015 -45 -6.30543e-005 -3.31114e-005 -1.1e-005 7e-006 8.75617 -128.123 3.32491 -164.642 19.7638 -1.06581e-014 8.88179e-016 -117.856 9.591e-005 -0.000401504 18.6534 0 -1e-006 53.0954 -14.298 4.06368 5.09143 13.9567 -1e-006 98.2666 -1.60119 3.9736 4.288 -1e-006 1e-006 -5.74333 0.000891444 0.000805037 3.85799 -7.10543e-014 -2e-006 -45 -1.60818e-005 -1.3409e-005 9.13979 -0.006267 0.395443 2.94796 2.99642 -7.40746 8.04403 -0.006355 0.000671 3.22128 -4.41442 -17.7896 8.04471 -0.006259 0.000854 8.61198 -6.09193 -12.264 8.04419 -0.008224 0.000499 0.924319 -1.87119 -7.30627 10.6677 1.06841 9.6788e-007 -22.2096 -0.00708667 -10.7513 -4.06657 -5.33522 -8.43685 132.664 -79.3967 48.9939 19.0492 7e-006 -1e-006 70.7944 -8.65752 -85.4569 10.3706 7.10543e-015 7.10543e-015 -125.017 0.000180566 -0.000532222 22.8631 8.52651e-014 3e-006 32.4484 22.5871 21.3099 6.48256 0.103653 0.504499 -31.0001 -11.713 -10.2197 3.66843 2.27374e-013 1e-006 36.1897 -5.78307e-006 1.45191e-005 -0.681452 -5.33735 9.33942 -113.412 75.8094 -161.86 19.0492 -1e-006 4.26326e-014 102.256 10.4903 81.0268 10.3706 -1e-006 1.40332e-013 -101.705 5.75327e-005 -0.000627536 22.8631 -8e-006 -3e-006 -5.35638 13.6913 -3.55127 6.48257 0.103653 -0.504494 -63.7134 -15.1779 7.46613 3.66843 1e-006 -1e-006 40.107 -2.49768e-006 -7.40384e-007 7.52525 -0.006637 3.59997e-005 -8.19138 -0.0151484 -16.6557 8.475 -0.006574 2.8e-005 -0.304042 0.0907724 -18.6591 8.41604 -1e-006 -3e-006 -33.4 47.3124 -35.3257 -6e-006 3e-006 -7.00001e-006 -23.1098 1.37701e-015 90 -1.88179e-006 -0.499999 1.85465e-006 138.233 90 -48.2334 0 0 0 -111.808 7.01671e-015 -180 3.32198 13.9104 3.88993 -22.989 1.37021e-015 90 0 0 0 -60.961 -1.52588e-005 -180 0 0 0 -120.289 2.69644e-006 -3.69493e-006 0 0 0 133.74 4.55267e-006 3.88876e-007 0 0 0 1.83152 -9.05381e-008 1.33612e-007 0 0 0 -17.65 2.8487e-007 -1.23945e-006 0 0 0 -26.1943 -3.16255e-006 -1.84525e-006 15.5776 -0.000398 -6.99998e-006 2.38542e-015 -3.18055e-015 -0 9.40547 1.0401 -6.5167 38.2196 -21.4028 85.352 2.77379 -0.004741 0.001875 23.2683 -11.9064 16.0584 9.40581 1.04003 6.51672 38.2191 21.4032 -85.3519 2.77379 -0.004703 -0.001816 23.2684 11.9094 -16.0566 
